<svg id="Layer_1" data-name="Layer 1" xmlns="http://www.w3.org/2000/svg" viewBox="0 0 151 118"><defs><style>.cls-1{isolation:isolate;}.cls-2{fill:none;stroke:#000;stroke-miterlimit:10;stroke-width:0.3px;}</style></defs><title>Artboard 1</title><g id="Page-1"><g id="Desktop-HD-Copy-12"><g id="_" data-name="“" class="cls-1"><g class="cls-1"><path class="cls-2" d="M2.46,71.73C2.46,44.12,31.12,15.46,57.17,3l2.08,1.56C45.7,16,20.7,28,20.7,58.18c0,20.84,14.06,28.14,37,22.41C65,88.92,55.6,108.2,35.81,108.2,18.09,108.2,2.46,96.22,2.46,71.73Zm70.34,0c0-27.61,28.65-56.27,54.7-68.77l2.08,1.56C116,16,91,28,91,58.18,91,79,105.1,86.32,128,80.59c7.3,8.33-2.08,27.61-21.88,27.61C88.43,108.2,72.8,96.22,72.8,71.73Z"/></g><g class="cls-1"><path class="cls-2" d="M2.46,71.73C2.46,44.12,31.12,15.46,57.17,3l2.08,1.56C45.7,16,20.7,28,20.7,58.18c0,20.84,14.06,28.14,37,22.41C65,88.92,55.6,108.2,35.81,108.2,18.09,108.2,2.46,96.22,2.46,71.73Zm70.34,0c0-27.61,28.65-56.27,54.7-68.77l2.08,1.56C116,16,91,28,91,58.18,91,79,105.1,86.32,128,80.59c7.3,8.33-2.08,27.61-21.88,27.61C88.43,108.2,72.8,96.22,72.8,71.73Z"/></g></g></g></g></svg>